<?xml version="1.0" standalone="no"?>
<!DOCTYPE svg PUBLIC "-//W3C//DTD SVG 20010904//EN"
 "http://www.w3.org/TR/2001/REC-SVG-20010904/DTD/svg10.dtd">
<svg version="1.0" xmlns="http://www.w3.org/2000/svg"
 width="640.000000pt" height="640.000000pt" viewBox="0 0 640.000000 640.000000"
 preserveAspectRatio="xMidYMid meet">
<metadata>
Created by potrace 1.14, written by Peter Selinger 2001-2017
</metadata>
<g transform="translate(0.000000,640.000000) scale(0.100000,-0.100000)"
fill="#000000" stroke="none">
<path d="M2250 4819 l0 -667 -22 -3 c-13 -2 -312 -4 -665 -4 -354 1 -643 0
-643 -1 0 -2 209 -213 465 -470 256 -257 464 -471 463 -475 -2 -4 -208 -214
-459 -467 -250 -252 -458 -463 -462 -468 -4 -7 225 -10 656 -10 l662 0 3 -669
2 -670 473 472 472 472 472 -469 c259 -259 473 -470 475 -470 2 0 3 299 3 664
0 584 2 665 15 668 8 2 309 3 668 3 358 -1 652 0 652 2 0 2 -212 215 -471 474
l-472 472 471 468 c259 258 467 471 464 472 -4 2 -301 4 -660 3 -426 -1 -656
2 -661 9 -4 6 -7 306 -7 668 1 361 0 657 -2 657 -2 0 -215 -211 -474 -470
-259 -258 -474 -467 -477 -465 -3 3 -216 216 -473 473 l-468 467 0 -666z"/>
</g>
</svg>
